<svg width="20" height="20" viewBox="0 0 20 20" fill="none" xmlns="http://www.w3.org/2000/svg">
<g clip-path="url(#clip0_6_1982)">
<path d="M11.08 0.0575137C9.885 -0.241236 8.775 0.662514 8.695 1.83251C8.605 3.14626 8.4075 4.35251 8.16 5.07001C8.00375 5.52001 7.56125 6.33626 6.86 7.11876C6.16375 7.89751 5.2575 8.59126 4.19625 8.88126C3.35625 9.11001 2.5 9.83751 2.5 10.9V15.9013C2.5 16.9575 3.3525 17.7313 4.31 17.8325C5.6475 17.975 6.265 18.3513 6.895 18.7363L6.955 18.7738C7.295 18.98 7.6775 19.2088 8.1675 19.3788C8.66375 19.5488 9.24375 19.65 10 19.65H14.375C15.5462 19.65 16.3737 19.0538 16.7925 18.32C16.9949 17.9738 17.1043 17.581 17.11 17.18C17.11 16.99 17.0812 16.79 17.0137 16.6C17.265 16.2713 17.4887 15.8775 17.6237 15.4738C17.7612 15.0613 17.8387 14.5213 17.6287 14.0375C17.715 13.875 17.7787 13.7013 17.8275 13.5338C17.9237 13.1963 17.9687 12.8238 17.9687 12.4625C17.9687 12.1025 17.9237 11.7313 17.8275 11.3925C17.7838 11.2368 17.726 11.0853 17.655 10.94C17.8739 10.6286 18.0147 10.2692 18.0656 9.89194C18.1165 9.51472 18.076 9.1308 17.9475 8.77252C17.69 8.03251 17.095 7.39751 16.4475 7.18251C15.3887 6.83001 14.1937 6.83751 13.3025 6.91876C13.1175 6.93541 12.9328 6.95625 12.7487 6.98126C13.1824 5.12425 13.1558 3.18941 12.6712 1.34501C12.587 1.0495 12.4252 0.78187 12.2028 0.569801C11.9804 0.357732 11.7054 0.208923 11.4062 0.138764L11.08 0.0575137ZM14.375 18.4013H10C9.3625 18.4013 8.92125 18.315 8.575 18.1963C8.22375 18.075 7.9425 17.9113 7.605 17.705L7.555 17.675C6.86125 17.2513 6.0575 16.7613 4.4425 16.59C4.02625 16.545 3.75 16.2275 3.75 15.9025V10.9C3.75 10.5825 4.0325 10.2213 4.525 10.0875C5.89375 9.71251 6.99625 8.84251 7.7925 7.95251C8.58625 7.06501 9.1225 6.10876 9.34 5.48001C9.64375 4.60501 9.84875 3.27001 9.9425 1.91751C9.97375 1.46501 10.3925 1.17501 10.7762 1.27001L11.1037 1.35251C11.3038 1.40251 11.4262 1.53126 11.4637 1.67126C11.9742 3.61629 11.9113 5.66745 11.2825 7.57751C11.2469 7.68375 11.2405 7.7976 11.264 7.90714C11.2875 8.01669 11.34 8.1179 11.4161 8.20019C11.4921 8.28248 11.5888 8.34282 11.6962 8.3749C11.8035 8.40697 11.9175 8.40961 12.0262 8.38251L12.03 8.38126L12.0475 8.37751L12.12 8.36001C12.5474 8.26925 12.9799 8.20372 13.415 8.16376C14.2437 8.08877 15.2362 8.09626 16.0525 8.36876C16.2712 8.44127 16.615 8.74376 16.765 9.18126C16.8987 9.56626 16.8737 10.0188 16.4325 10.4588L15.9912 10.9L16.4325 11.3425C16.4862 11.3963 16.5637 11.5188 16.625 11.7363C16.685 11.945 16.7187 12.1988 16.7187 12.4625C16.7187 12.7275 16.685 12.98 16.625 13.19C16.5625 13.4075 16.4862 13.53 16.4325 13.5838L15.9912 14.025L16.4325 14.4675C16.4912 14.5263 16.5687 14.6888 16.4387 15.0775C16.3033 15.4545 16.088 15.7977 15.8075 16.0838L15.3662 16.525L15.8075 16.9675C15.815 16.9738 15.8587 17.03 15.8587 17.18C15.8532 17.3634 15.8012 17.5423 15.7075 17.7C15.5012 18.06 15.0787 18.4013 14.375 18.4013Z" fill="black"/>
</g>
<defs>
<clipPath id="clip0_6_1982">
<rect width="20" height="20" fill="white"/>
</clipPath>
</defs>
</svg>
