<svg width="20" height="20" viewBox="0 0 20 20" fill="none" xmlns="http://www.w3.org/2000/svg">
<path d="M16.1502 1.56395L16.3174 1.39671C16.4433 1.2709 16.5927 1.17112 16.7571 1.10307C16.9216 1.03501 17.0978 1.00001 17.2758 1.00006C17.4537 1.00011 17.6299 1.03522 17.7943 1.10337C17.9587 1.17152 18.1081 1.27139 18.2339 1.39727C18.3597 1.52314 18.4595 1.67257 18.5276 1.83701C18.5956 2.00145 18.6306 2.17768 18.6306 2.35564C18.6305 2.53361 18.5954 2.70982 18.5273 2.87422C18.4591 3.03862 18.3592 3.18799 18.2334 3.31379L18.0661 3.47991C18.3522 3.80076 18.5047 4.2189 18.4924 4.6486C18.4801 5.0783 18.3039 5.48701 17.9999 5.79096L6.448 17.344C6.37578 17.4158 6.28538 17.4666 6.18647 17.491L1.69681 18.6134C1.60286 18.6368 1.50445 18.6355 1.41115 18.6096C1.31785 18.5837 1.23284 18.5342 1.16437 18.4657C1.09591 18.3972 1.04632 18.3122 1.02043 18.2189C0.994544 18.1256 0.993234 18.0272 1.01663 17.9332L2.13904 13.4436C2.1636 13.3451 2.21442 13.2551 2.28608 13.1832L13.1084 2.36086C13.0002 2.28468 12.8685 2.24921 12.7366 2.26071C12.6048 2.27221 12.4812 2.32995 12.3878 2.42372L8.69283 6.11983C8.64065 6.17201 8.5787 6.2134 8.51053 6.24164C8.44235 6.26988 8.36928 6.28441 8.29549 6.28441C8.2217 6.28441 8.14863 6.26988 8.08045 6.24164C8.01228 6.2134 7.95034 6.17201 7.89816 6.11983C7.84598 6.06765 7.80459 6.0057 7.77635 5.93753C7.74811 5.86935 7.73357 5.79629 7.73357 5.72249C7.73357 5.6487 7.74811 5.57563 7.77635 5.50746C7.80459 5.43928 7.84598 5.37734 7.89816 5.32516L11.5954 1.63017C11.8995 1.32601 12.3086 1.1498 12.7385 1.13769C13.1685 1.12559 13.5868 1.27851 13.9076 1.56507C14.216 1.28945 14.615 1.13699 15.0286 1.13679C15.4423 1.13658 15.8415 1.28863 16.1502 1.56395ZM15.4273 2.42372C15.3221 2.31851 15.1794 2.2594 15.0305 2.2594C14.8817 2.2594 14.739 2.31851 14.6338 2.42372L3.1885 13.8667L2.33098 17.298L5.7622 16.4404L17.2075 4.99741C17.2597 4.94528 17.3012 4.88335 17.3295 4.81517C17.3578 4.74699 17.3723 4.6739 17.3723 4.60008C17.3723 4.52626 17.3578 4.45317 17.3295 4.38499C17.3012 4.3168 17.2597 4.25487 17.2075 4.20274L15.4273 2.42372Z" fill="black"/>
</svg>
