<svg width="20" height="20" viewBox="0 0 20 20" fill="none" xmlns="http://www.w3.org/2000/svg">
<g clip-path="url(#clip0_6_1997)">
<path d="M8.32644 3.16869C8.35921 3.15426 8.39508 3.14831 8.43075 3.15137C8.46642 3.15442 8.50075 3.1664 8.53059 3.18619C8.56042 3.20598 8.5848 3.23295 8.60149 3.26463C8.61818 3.29631 8.62664 3.33167 8.62609 3.36747V5.07784C8.62609 5.27455 8.70423 5.46321 8.84333 5.6023C8.98243 5.7414 9.17108 5.81954 9.36779 5.81954C10.3572 5.81954 12.3539 5.82696 14.263 7.03891C15.7227 7.96455 17.215 9.64971 18.1125 12.7886C16.5994 11.3304 14.8712 10.5398 13.3582 10.1199C12.4281 9.86308 11.4723 9.71082 10.5085 9.66602C10.114 9.64869 9.71886 9.65266 9.32478 9.67789H9.30549L9.29807 9.67937L9.36779 10.4181L9.29362 9.67937C9.11055 9.69777 8.94084 9.78357 8.81748 9.92009C8.69412 10.0566 8.6259 10.2341 8.62609 10.4181V12.1285C8.62609 12.2887 8.46291 12.3896 8.32644 12.3273L2.41654 7.97642C2.39648 7.96154 2.37568 7.94768 2.35423 7.93488C2.32198 7.9155 2.29529 7.8881 2.27676 7.85535C2.25823 7.8226 2.24849 7.78561 2.24849 7.74797C2.24849 7.71034 2.25823 7.67335 2.27676 7.6406C2.29529 7.60785 2.32198 7.58045 2.35423 7.56107C2.37569 7.54828 2.39648 7.53442 2.41654 7.51953L8.32644 3.16869ZM10.1095 11.139C10.2104 11.139 10.3216 11.1435 10.4403 11.1479C11.0841 11.1776 11.9741 11.2755 12.9621 11.55C14.9291 12.0958 17.258 13.333 18.8067 16.1189C18.8905 16.2692 19.0239 16.3858 19.1842 16.4486C19.3445 16.5114 19.5216 16.5164 19.6852 16.463C19.8488 16.4095 19.9887 16.3008 20.0809 16.1554C20.1732 16.0101 20.212 15.8372 20.1908 15.6664C19.5024 10.163 17.393 7.26735 15.0582 5.78691C13.2113 4.61501 11.3096 4.38954 10.1095 4.34652V3.36747C10.1096 3.06199 10.0273 2.76213 9.87122 2.49954C9.71512 2.23696 9.49104 2.02137 9.22262 1.87554C8.95419 1.72971 8.65138 1.65903 8.34613 1.67098C8.04089 1.68292 7.74452 1.77703 7.48831 1.94339L1.56358 6.30462C1.31864 6.45751 1.11663 6.67022 0.976588 6.92273C0.836543 7.17524 0.763062 7.45923 0.763062 7.74797C0.763062 8.03672 0.836543 8.32071 0.976588 8.57322C1.11663 8.82572 1.31864 9.03844 1.56358 9.19133L7.48831 13.5526C7.74452 13.7189 8.04089 13.813 8.34613 13.825C8.65138 13.8369 8.95419 13.7662 9.22262 13.6204C9.49104 13.4746 9.71512 13.259 9.87122 12.9964C10.0273 12.7338 10.1096 12.434 10.1095 12.1285V11.139Z" fill="black"/>
</g>
<defs>
<clipPath id="clip0_6_1997">
<rect width="20" height="20" fill="white"/>
</clipPath>
</defs>
</svg>
